<?xml version="1.0" encoding="UTF-8" standalone="no"?><svg viewBox="0 0 1991.2 2000" xmlns="http://www.w3.org/2000/svg" xmlns:xlink="http://www.w3.org/1999/xlink"><style>:root>svg{display:none}:root>svg:target{display:block}</style><svg preserveAspectRatio="xMidYMid" viewBox="0 0 256 256" id="facebook-seeklogo.com" xmlns="http://www.w3.org/2000/svg"><path d="M241.871 256.001c7.802 0 14.129-6.326 14.129-14.129V14.129C256 6.325 249.673 0 241.871 0H14.129C6.324 0 0 6.325 0 14.129v227.743c0 7.803 6.324 14.129 14.129 14.129h227.742" fill="#395185"/><path d="M176.635 256.001v-99.137h33.277l4.982-38.635h-38.259V93.561c0-11.186 3.107-18.809 19.148-18.809l20.459-.009V40.188c-3.54-.471-15.684-1.523-29.812-1.523-29.498 0-49.692 18.005-49.692 51.071v28.493h-33.362v38.635h33.362v99.137h39.897" fill="#FFF"/></svg><svg preserveAspectRatio="xMidYMid" viewBox="0 0 256 209" id="twitter-seeklogo.com" xmlns="http://www.w3.org/2000/svg"><path d="M256 25.45c-9.42 4.177-19.542 7-30.166 8.27 10.845-6.5 19.172-16.793 23.093-29.057a105.183 105.183 0 01-33.351 12.745C205.995 7.201 192.346.822 177.239.822c-29.006 0-52.523 23.516-52.523 52.52 0 4.117.465 8.125 1.36 11.97-43.65-2.191-82.35-23.1-108.255-54.876-4.52 7.757-7.11 16.78-7.11 26.404 0 18.222 9.273 34.297 23.365 43.716a52.312 52.312 0 01-23.79-6.57c-.003.22-.003.44-.003.661 0 25.447 18.104 46.675 42.13 51.5a52.592 52.592 0 01-23.718.9c6.683 20.866 26.08 36.05 49.062 36.475-17.975 14.086-40.622 22.483-65.228 22.483-4.24 0-8.42-.249-12.529-.734 23.243 14.902 50.85 23.597 80.51 23.597 96.607 0 149.434-80.031 149.434-149.435 0-2.278-.05-4.543-.152-6.795A106.748 106.748 0 00256 25.45" fill="#55acee"/></svg><svg viewBox="0 0 1219.547 1225.016" id="whatsapp-icon-seeklogo.com" xmlns="http://www.w3.org/2000/svg"><path fill="#E0E0E0" d="M1041.858 178.02C927.206 63.289 774.753.07 612.325 0 277.617 0 5.232 272.298 5.098 606.991c-.039 106.986 27.915 211.42 81.048 303.476L0 1225.016l321.898-84.406c88.689 48.368 188.547 73.855 290.166 73.896h.261c334.654 0 607.08-272.346 607.222-607.023.056-162.208-63.052-314.724-177.689-429.463zm-429.533 933.963h-.197c-90.578-.048-179.402-24.366-256.878-70.339l-18.438-10.93-191.021 50.083 51-186.176-12.013-19.087c-50.525-80.336-77.198-173.175-77.16-268.504.111-278.186 226.507-504.503 504.898-504.503 134.812.056 261.519 52.604 356.814 147.965 95.289 95.36 147.728 222.128 147.688 356.948-.118 278.195-226.522 504.543-504.693 504.543z"/><linearGradient id="ca" gradientUnits="userSpaceOnUse" x1="609.77" y1="1190.114" x2="609.77" y2="21.084"><stop offset="0" stop-color="#20b038"/><stop offset="1" stop-color="#60d66a"/></linearGradient><path fill="url(#ca)" d="M27.875 1190.114l82.211-300.18c-50.719-87.852-77.391-187.523-77.359-289.602.133-319.398 260.078-579.25 579.469-579.25 155.016.07 300.508 60.398 409.898 169.891 109.414 109.492 169.633 255.031 169.57 409.812-.133 319.406-260.094 579.281-579.445 579.281-.023 0 .016 0 0 0h-.258c-96.977-.031-192.266-24.375-276.898-70.5l-307.188 80.548z"/><image overflow="visible" opacity=".08" width="682" height="639" xmlns:xlink="http://www.w3.org/1999/xlink" xlink:href="FCC0802E2AF8A915.png" transform="translate(270.984 291.372)"/><path fill-rule="evenodd" clip-rule="evenodd" fill="#FFF" d="M462.273 349.294c-11.234-24.977-23.062-25.477-33.75-25.914-8.742-.375-18.75-.352-28.742-.352-10 0-26.25 3.758-39.992 18.766-13.75 15.008-52.5 51.289-52.5 125.078 0 73.797 53.75 145.102 61.242 155.117 7.5 10 103.758 166.266 256.203 226.383 126.695 49.961 152.477 40.023 179.977 37.523s88.734-36.273 101.234-71.297c12.5-35.016 12.5-65.031 8.75-71.305-3.75-6.25-13.75-10-28.75-17.5s-88.734-43.789-102.484-48.789-23.75-7.5-33.75 7.516c-10 15-38.727 48.773-47.477 58.773-8.75 10.023-17.5 11.273-32.5 3.773-15-7.523-63.305-23.344-120.609-74.438-44.586-39.75-74.688-88.844-83.438-103.859-8.75-15-.938-23.125 6.586-30.602 6.734-6.719 15-17.508 22.5-26.266 7.484-8.758 9.984-15.008 14.984-25.008 5-10.016 2.5-18.773-1.25-26.273s-32.898-81.67-46.234-111.326z"/><path fill="#FFF" d="M1036.898 176.091C923.562 62.677 772.859.185 612.297.114 281.43.114 12.172 269.286 12.039 600.137 12 705.896 39.633 809.13 92.156 900.13L7 1211.067l318.203-83.438c87.672 47.812 186.383 73.008 286.836 73.047h.258c330.812 0 600.109-269.219 600.25-600.055.055-160.343-62.328-311.108-175.649-424.53zm-424.601 923.242h-.195c-89.539-.047-177.344-24.086-253.93-69.531l-18.227-10.805-188.828 49.508 50.414-184.039-11.875-18.867c-49.945-79.414-76.312-171.188-76.273-265.422.109-274.992 223.906-498.711 499.102-498.711 133.266.055 258.516 52 352.719 146.266 94.195 94.266 146.031 219.578 145.992 352.852-.118 274.999-223.923 498.749-498.899 498.749z"/></svg><svg preserveAspectRatio="xMidYMid" viewBox="0 0 256 180" id="youtube-seeklogo.com" xmlns="http://www.w3.org/2000/svg"><defs><linearGradient x1="49.98%" y1="0%" x2="49.98%" y2="100.03%" id="da"><stop stop-color="#E52D27" offset="0%"/><stop stop-color="#BF171D" offset="100%"/></linearGradient></defs><path d="M101.6 123.2l69.2-35.8-69.2-36.1v71.9z" fill="#FFF"/><path d="M101.6 51.3l60.7 40.5 8.5-4.4-69.2-36.1z" opacity=".12" fill="#420000"/><path d="M253.301 38.8s-2.499-17.6-10.196-25.4c-9.696-10.2-20.592-10.2-25.69-10.8C181.73 0 128.05 0 128.05 0h-.1S74.271 0 38.385 2.6c-4.998.6-15.894.6-25.69 10.8C5.098 21.2 2.599 38.8 2.599 38.8S0 59.6 0 80.3v19.4c0 20.7 2.599 41.4 2.599 41.4s2.499 17.6 10.196 25.4c9.696 10.2 22.491 9.9 28.189 10.9 20.492 2 86.966 2.6 86.966 2.6s53.779-.1 89.565-2.7c4.998-.6 15.894-.6 25.69-10.8 7.697-7.8 10.196-25.4 10.196-25.4S256 120.4 256 99.7V80.3c-.1-20.7-2.699-41.5-2.699-41.5zm-151.74 84.4V51.3l69.172 36.1-69.173 35.8z" fill="url(#da)"/></svg></svg>